# xmcd
#
# Track frame offsets:
#	150
#	11502
#	24477
#	34650
#	44807
#	57922
#	67404
#	75684
#	85621
#	97874
#	108827
#	121459
#	132861
#	146453
#	160841
#	171874
#	181822
#	194287
#
# Disc length: 2702 seconds
#
# Revision: 1
# Processed by: cddbd v1.5.2PL0 Copyright (c) Steve Scherf et al.
# Submitted via: audiograbber 1.83.01
#
DISCID=eb0a8c12
DTITLE=Various Artist - Country ... all its Best - CD2
DYEAR=2004
DGENRE=Country
TTITLE0=Patsy Cline - Walkin' after Midnight
TTITLE1=Kenny Rogers and The First Edition - Ruby, don't take your Love to Town
TTITLE2=Jerry Wallace - You're singing our Love Song
TTITLE3=Willie Nelson - Broken Promises
TTITLE4=Jerry Lee Lewis - You win again
TTITLE5=Donna Fargo - Sticks and Stones
TTITLE6=Johnny Cash - Country Boy
TTITLE7=Faron Young - Hello Walls
TTITLE8=Billie Jo Spears - The cheating Kind
TTITLE9=Patsy Cline - I can't forget
TTITLE10=Freddy Fender - You'll lose a good Thing
TTITLE11=Barbara Fairchild - Cheatin' is
TTITLE12=Patty Page - The Tennessee Waltz
TTITLE13=Loretta Lynn - Coal Miner's Daughter
TTITLE14=Razzy Bailey - If I could write a Song
TTITLE15=Mickey Gilley - I miss you so
TTITLE16=Hank Williams - Honky Tonkin'
TTITLE17=Waylon Jennings - Abilene
EXTD=
EXTT0=
EXTT1=
EXTT2=
EXTT3=
EXTT4=
EXTT5=
EXTT6=
EXTT7=
EXTT8=
EXTT9=
EXTT10=
EXTT11=
EXTT12=
EXTT13=
EXTT14=
EXTT15=
EXTT16=
EXTT17=
PLAYORDER=
